<svg xmlns="http://www.w3.org/2000/svg"  viewBox="0 0 64 64" width="64px" height="64px"><radialGradient id="TuaLsXSYUsuEQPzhWqmlja" cx="32" cy="807.39" r="31.259" gradientTransform="translate(0 -775.89)" gradientUnits="userSpaceOnUse"><stop offset="0" stop-color="#edd7a1"/><stop offset=".258" stop-color="#f0dba9"/><stop offset=".667" stop-color="#f7e7c0"/><stop offset="1" stop-color="#fff3d8"/></radialGradient><path fill="url(#TuaLsXSYUsuEQPzhWqmlja)" d="M56,52c0,1.1,0.9,2,2,2c2.33,0,4.22,2.03,3.98,4.41C61.77,60.49,59.9,62,57.81,62H4	c-2.34,0-4.22-2.03-3.98-4.41C0.23,55.51,2.1,54,4.19,54H6c1.11,0,2-0.9,2-2c0-0.55-0.22-1.05-0.58-1.41C7.06,50.22,6.56,50,6,50	c-1.65,0-3-1.35-3-3s1.35-3,3-3h16v-9H5c-2.34,0-4.22-2.03-3.98-4.41C1.23,28.51,3.1,27,5.19,27H8.5c1.93,0,3.5-1.57,3.5-3.5	S10.43,20,8.5,20H6c-2.34,0-4.22-2.03-3.98-4.41C2.23,13.51,4.1,12,6.19,12H21c0.83,0,1.58-0.34,2.12-0.88C23.66,10.58,24,9.83,24,9	c0-1.66-1.34-3-3-3h-5.5c-1.47,0-2.64-1.26-2.49-2.76C13.14,1.94,14.34,1,15.64,1H48.5c1.47,0,2.64,1.26,2.49,2.76	C50.86,5.06,49.66,6,48.36,6H44c-0.83,0-1.58,0.34-2.12,0.88C41.34,7.42,41,8.17,41,9c0,1.66,1.34,3,3,3h14.5	c1.47,0,2.64,1.26,2.49,2.76c-0.13,1.3-1.33,2.24-2.63,2.24H58c-1.1,0-2,0.9-2,2s0.9,2,2,2h1.81c2.09,0,3.96,1.51,4.17,3.59	C64.22,26.97,62.33,29,60,29H42v3h16c1.65,0,3,1.35,3,3s-1.35,3-3,3h-8c-1.38,0-2.5,1.12-2.5,2.5S48.62,43,50,43h10.5	c1.92,0,3.5,1.58,3.5,3.5S62.42,50,60.5,50H58C56.9,50,56,50.9,56,52z"/><linearGradient id="TuaLsXSYUsuEQPzhWqmljb" x1="32" x2="32" y1="-1965.035" y2="-2009.035" gradientTransform="matrix(1 0 0 -1 0 -1958.11)" gradientUnits="userSpaceOnUse"><stop offset="0" stop-color="#a4a4a4"/><stop offset=".619" stop-color="gray"/><stop offset="1" stop-color="#6f6f6f"/></linearGradient><path fill="url(#TuaLsXSYUsuEQPzhWqmljb)" d="M50,10H14c-2.209,0-4,1.791-4,4v36c0,2.209,1.791,4,4,4h36c2.209,0,4-1.791,4-4V14	C54,11.791,52.209,10,50,10z"/><path fill="#fff" d="M50,23.714c0,0.191-0.19,0.382-0.379,0.382h-2.179l-9.758,20.713C37.59,44.905,37.494,45,37.306,45	l0,0c-0.19,0-0.284-0.095-0.379-0.191l-4.642-9.352l-5.021,9.352C27.169,44.905,27.073,45,26.884,45	c-0.19,0-0.284-0.095-0.379-0.191l-9.852-20.618h-2.273c-0.19,0-0.379-0.191-0.379-0.382v-1.427c0-0.191,0.19-0.381,0.379-0.381	h7.712c0.19,0,0.379,0.191,0.379,0.382v1.427c0,0.191-0.19,0.381-0.379,0.381h-1.46l6.821,15.464l3.6-6.681l-4.547-8.783h-1.52	c-0.19,0-0.379-0.191-0.379-0.382v-1.427c0-0.191,0.19-0.382,0.379-0.382h6.636C31.81,22.001,32,22.192,32,22.383v1.427	c0,0.191-0.19,0.381-0.379,0.381h-1.327l2.558,5.349l3.127-5.349h-1.482c-0.19,0-0.379-0.191-0.379-0.382v-1.427	c0-0.191,0.19-0.381,0.379-0.381h5.595c0.19,0,0.379,0.191,0.379,0.382v1.427c0,0.191-0.19,0.381-0.379,0.381h-1.46l-4.548,7.829	l3.694,7.635l7.106-15.464h-1.918c-0.188,0-0.378-0.191-0.378-0.382v-1.427c0-0.191,0.19-0.381,0.379-0.381h6.654	c0.19,0,0.379,0.191,0.379,0.382V23.714z"/></svg>